<?xml version="1.0" encoding="UTF-8" standalone="no"?>
<svg
   xmlns:dc="http://purl.org/dc/elements/1.1/"
   xmlns:cc="http://creativecommons.org/ns#"
   xmlns:rdf="http://www.w3.org/1999/02/22-rdf-syntax-ns#"
   xmlns:svg="http://www.w3.org/2000/svg"
   xmlns="http://www.w3.org/2000/svg"
   viewBox="0 0 990 161.25"
   height="161.25"
   width="990"
   xml:space="preserve"
   version="1.1"
   id="svg3655"><metadata
     id="metadata3661"><rdf:RDF><cc:Work
         rdf:about=""><dc:format>image/svg+xml</dc:format><dc:type
           rdf:resource="http://purl.org/dc/dcmitype/StillImage" /><dc:title></dc:title></cc:Work></rdf:RDF></metadata><defs
     id="defs3659"><clipPath
       id="clipPath3669"
       clipPathUnits="userSpaceOnUse"><path
         id="path3671"
         d="M 0,129 792,129 792,0 0,0 0,129 Z" /></clipPath></defs><g
     transform="matrix(1.25,0,0,-1.25,0,161.25)"
     id="g3663"><g
       id="g3665"><g
         clip-path="url(#clipPath3669)"
         id="g3667"><g
           transform="translate(659.633,84.7276)"
           id="g3673"><path
             id="path3675"
             style="fill:#0000ee;fill-opacity:1;fill-rule:nonzero;stroke:none"
             d="M 0,0 15.343,-26.855 46.271,-26.995 61.859,-0.279 46.516,26.575 15.585,26.715 0,0 Z m 15.007,-27.94 c -0.187,0.007 -0.359,0.11 -0.451,0.274 l -15.654,27.4 c -0.098,0.168 -0.097,0.375 0.001,0.543 l 15.901,27.256 c 0.098,0.169 0.278,0.272 0.473,0.271 l 31.558,-0.143 c 0.148,0 0.374,-0.105 0.468,-0.275 L 62.957,-0.013 c 0.098,-0.168 0.096,-0.375 -10e-4,-0.543 L 47.052,-27.813 c -0.097,-0.169 -0.278,-0.272 -0.473,-0.271 l -31.555,0.143 c -0.004,0 -0.011,0 -0.017,10e-4" /></g><g
           transform="translate(685.679,91.2087)"
           id="g3677"><path
             id="path3679"
             style="fill:#0000ee;fill-opacity:1;fill-rule:nonzero;stroke:none"
             d="m 0,0 c -0.083,0.003 -0.167,-0.014 -0.246,-0.055 l -0.385,-0.2 c -0.037,-0.019 -0.061,-0.031 -0.061,-0.031 -0.245,-0.127 -0.341,-0.429 -0.214,-0.674 0.086,-0.166 0.252,-0.263 0.426,-0.27 0.083,-0.003 0.169,0.015 0.248,0.056 l 0.444,0.23 C 0.457,-0.816 0.553,-0.515 0.426,-0.27 0.34,-0.104 0.174,-0.006 0,0" /></g><g
           transform="translate(684.7092,72.9761)"
           id="g3681"><path
             id="path3683"
             style="fill:#0000ee;fill-opacity:1;fill-rule:nonzero;stroke:none"
             d="M 0,0 -0.428,0.258 C -0.503,0.304 -0.585,0.327 -0.667,0.33 -0.843,0.337 -1.017,0.25 -1.114,0.089 -1.257,-0.148 -1.181,-0.455 -0.945,-0.598 l 0.428,-0.258 c 0.075,-0.046 0.158,-0.069 0.24,-0.072 0.176,-0.006 0.349,0.08 0.447,0.242 C 0.312,-0.45 0.237,-0.143 0,0" /></g><g
           transform="translate(682.572,89.5976)"
           id="g3685"><path
             id="path3687"
             style="fill:#0000ee;fill-opacity:1;fill-rule:nonzero;stroke:none"
             d="m 0,0 c -0.083,0.003 -0.169,-0.015 -0.248,-0.056 l -0.445,-0.231 c -0.245,-0.127 -0.34,-0.428 -0.213,-0.673 0.086,-0.166 0.252,-0.263 0.426,-0.27 0.083,-0.003 0.169,0.015 0.248,0.056 l 0.444,0.23 C 0.457,-0.817 0.553,-0.515 0.426,-0.27 0.34,-0.104 0.174,-0.006 0,0" /></g><g
           transform="translate(690.7021,69.3589)"
           id="g3689"><path
             id="path3691"
             style="fill:#0000ee;fill-opacity:1;fill-rule:nonzero;stroke:none"
             d="M 0,0 -0.428,0.258 C -0.503,0.304 -0.585,0.327 -0.667,0.33 -0.843,0.337 -1.017,0.25 -1.114,0.089 -1.257,-0.148 -1.181,-0.454 -0.945,-0.597 l 0.429,-0.259 c 0.075,-0.046 0.157,-0.069 0.239,-0.072 0.175,-0.006 0.35,0.08 0.447,0.242 C 0.313,-0.45 0.237,-0.143 0,0" /></g><g
           transform="translate(687.7057,71.1675)"
           id="g3693"><path
             id="path3695"
             style="fill:#0000ee;fill-opacity:1;fill-rule:nonzero;stroke:none"
             d="m 0,0 -0.428,0.258 c -0.075,0.046 -0.158,0.069 -0.239,0.072 -0.176,0.007 -0.35,-0.08 -0.448,-0.241 -0.142,-0.237 -0.066,-0.544 0.17,-0.687 l 0.041,-0.024 0,0 0.001,-0.001 0.001,0 0,-0.001 c 0,0 0,0 0,0 l 0.015,-0.009 0.001,0 0.001,-0.001 c 0.001,0 0.001,-0.001 0.001,-0.001 l 0.004,-0.002 c 0,0 0,0 0,0 l 0,0 0.001,0 0,-0.001 0.001,0 0.002,-0.001 0.001,-0.001 0,0 c 0.004,-0.002 0.007,-0.004 0.011,-0.006 l 0.001,-0.001 c 0.124,-0.075 0.346,-0.209 0.346,-0.209 0.075,-0.045 0.158,-0.069 0.24,-0.072 0.175,-0.006 0.349,0.08 0.447,0.242 C 0.312,-0.45 0.236,-0.143 0,0" /></g><g
           transform="translate(681.7128,74.7847)"
           id="g3697"><path
             id="path3699"
             style="fill:#0000ee;fill-opacity:1;fill-rule:nonzero;stroke:none"
             d="M 0,0 -0.428,0.258 C -0.503,0.304 -0.586,0.327 -0.667,0.33 -0.843,0.337 -1.017,0.25 -1.115,0.089 -1.257,-0.147 -1.182,-0.454 -0.946,-0.597 l 0.149,-0.09 c 0,0 0.001,-10e-4 0.001,-10e-4 l 0.001,0 c 0.001,-0.001 0.003,-0.002 0.004,-0.003 l 0.001,0 c 0.123,-0.074 0.273,-0.165 0.273,-0.165 0.075,-0.045 0.158,-0.069 0.239,-0.072 0.176,-0.006 0.35,0.08 0.448,0.242 C 0.312,-0.45 0.236,-0.143 0,0" /></g><g
           transform="translate(688.7863,92.8199)"
           id="g3701"><path
             id="path3703"
             style="fill:#0000ee;fill-opacity:1;fill-rule:nonzero;stroke:none"
             d="m 0,0 c -0.083,0.003 -0.169,-0.015 -0.248,-0.056 0,0 -0.038,-0.02 -0.093,-0.048 l -0.002,-0.001 -10e-4,-0.001 -0.35,-0.181 c -0.244,-0.128 -0.339,-0.429 -0.212,-0.673 0.086,-0.166 0.252,-0.263 0.426,-0.27 0.083,-0.003 0.169,0.015 0.248,0.056 l 0.444,0.23 C 0.457,-0.817 0.553,-0.515 0.426,-0.27 0.34,-0.104 0.174,-0.006 0,0" /></g><g
           transform="translate(675.7197,78.4019)"
           id="g3705"><path
             id="path3707"
             style="fill:#0000ee;fill-opacity:1;fill-rule:nonzero;stroke:none"
             d="M 0,0 -0.428,0.258 C -0.503,0.304 -0.585,0.327 -0.667,0.33 -0.843,0.337 -1.017,0.25 -1.114,0.089 -1.257,-0.148 -1.181,-0.455 -0.945,-0.598 l 0.428,-0.258 c 0.075,-0.045 0.158,-0.069 0.24,-0.072 0.175,-0.006 0.35,0.08 0.447,0.242 C 0.312,-0.45 0.237,-0.143 0,0" /></g><g
           transform="translate(679.5947,88.0455)"
           id="g3709"><path
             id="path3711"
             style="fill:#0000ee;fill-opacity:1;fill-rule:nonzero;stroke:none"
             d="m 0,0 c -0.083,0.003 -0.168,-0.015 -0.247,-0.055 l -0.446,-0.231 c -0.244,-0.128 -0.34,-0.429 -0.213,-0.674 0.086,-0.166 0.252,-0.263 0.426,-0.27 0.083,-0.003 0.169,0.015 0.248,0.056 l 0.444,0.23 C 0.457,-0.817 0.553,-0.515 0.426,-0.27 0.34,-0.104 0.174,-0.006 0,0" /></g><g
           transform="translate(672.1349,80.5836)"
           id="g3713"><path
             id="path3715"
             style="fill:#0000ee;fill-opacity:1;fill-rule:nonzero;stroke:none"
             d="m 0,0 -0.428,0.258 c -0.075,0.046 -0.158,0.069 -0.239,0.072 -0.176,0.007 -0.35,-0.08 -0.448,-0.241 -0.142,-0.237 -0.066,-0.544 0.17,-0.687 0,0 0.051,-0.03 0.117,-0.07 l 0,0 c 0.001,-0.001 0.002,-0.001 0.002,-0.002 l 0,0 c 0,0 0.001,0 0.001,0 l 0.31,-0.187 c 0.075,-0.045 0.156,-0.068 0.237,-0.071 0.176,-0.006 0.35,0.08 0.448,0.242 C 0.312,-0.45 0.236,-0.143 0,0" /></g><g
           transform="translate(669.1994,82.0729)"
           id="g3717"><path
             id="path3719"
             style="fill:#0000ee;fill-opacity:1;fill-rule:nonzero;stroke:none"
             d="m 0,0 -0.428,0.258 c -0.075,0.046 -0.158,0.069 -0.239,0.072 -0.176,0.007 -0.35,-0.08 -0.448,-0.241 -0.142,-0.237 -0.066,-0.544 0.17,-0.687 0,0 0.051,-0.03 0.117,-0.07 l 0,0 c 0.001,-0.001 0.002,-0.001 0.002,-0.002 l 0,0 c 0.001,0 0.001,0 0.001,0 l 0.31,-0.187 c 0.075,-0.045 0.156,-0.068 0.237,-0.071 0.176,-0.006 0.35,0.08 0.448,0.242 C 0.312,-0.45 0.236,-0.143 0,0" /></g><g
           transform="translate(673.6091,84.9762)"
           id="g3721"><path
             id="path3723"
             style="fill:#0000ee;fill-opacity:1;fill-rule:nonzero;stroke:none"
             d="m 0,0 c -0.083,0.003 -0.167,-0.014 -0.246,-0.055 l -0.304,-0.157 0,-0.001 -0.003,-0.001 c -0.077,-0.04 -0.139,-0.072 -0.139,-0.072 -0.245,-0.127 -0.341,-0.429 -0.214,-0.674 0.086,-0.166 0.252,-0.263 0.426,-0.27 0.083,-0.003 0.169,0.015 0.248,0.056 l 0.444,0.23 C 0.457,-0.817 0.553,-0.515 0.426,-0.27 0.34,-0.104 0.174,-0.006 0,0" /></g><g
           transform="translate(670.912,83.5719)"
           id="g3725"><path
             id="path3727"
             style="fill:#0000ee;fill-opacity:1;fill-rule:nonzero;stroke:none"
             d="M 0,0 C -0.083,0.003 -0.167,-0.014 -0.246,-0.055 L -0.55,-0.212 -0.551,-0.213 -0.553,-0.214 c -0.077,-0.04 -0.139,-0.072 -0.139,-0.072 -0.245,-0.127 -0.341,-0.429 -0.214,-0.674 0.086,-0.166 0.252,-0.263 0.426,-0.27 0.083,-0.003 0.169,0.015 0.248,0.056 l 0.444,0.23 C 0.457,-0.817 0.553,-0.515 0.426,-0.27 0.34,-0.104 0.174,-0.006 0,0" /></g><g
           transform="translate(678.7163,76.5934)"
           id="g3729"><path
             id="path3731"
             style="fill:#0000ee;fill-opacity:1;fill-rule:nonzero;stroke:none"
             d="m 0,0 -0.428,0.258 c -0.075,0.046 -0.157,0.069 -0.239,0.072 -0.176,0.007 -0.35,-0.08 -0.448,-0.241 -0.142,-0.237 -0.066,-0.544 0.17,-0.687 l 0.042,-0.025 0,0 0,0 0,0 0.001,-0.001 c 0.001,0 0.002,-0.001 0.003,-0.001 l 0,-0.001 c 0.002,-0.001 0.004,-0.002 0.007,-0.003 0.114,-0.069 0.375,-0.227 0.375,-0.227 0.075,-0.045 0.158,-0.069 0.24,-0.072 0.175,-0.006 0.349,0.08 0.447,0.242 C 0.312,-0.45 0.236,-0.143 0,0" /></g><g
           transform="translate(676.6135,86.5161)"
           id="g3733"><path
             id="path3735"
             style="fill:#0000ee;fill-opacity:1;fill-rule:nonzero;stroke:none"
             d="m 0,0 c -0.083,0.003 -0.169,-0.015 -0.248,-0.056 0,0 -0.091,-0.047 -0.191,-0.099 l 0,0 c -0.002,-0.001 -0.003,-0.001 -0.005,-0.002 l -0.25,-0.13 c -0.244,-0.128 -0.339,-0.428 -0.212,-0.673 0.086,-0.166 0.252,-0.263 0.426,-0.27 0.083,-0.003 0.169,0.015 0.248,0.056 l 0.444,0.23 C 0.457,-0.817 0.553,-0.515 0.426,-0.27 0.34,-0.104 0.174,-0.006 0,0" /></g><g
           transform="translate(691.8933,94.431)"
           id="g3737"><path
             id="path3739"
             style="fill:#0000ee;fill-opacity:1;fill-rule:nonzero;stroke:none"
             d="m 0,0 c -0.083,0.003 -0.167,-0.014 -0.246,-0.055 l -0.447,-0.232 c -0.244,-0.127 -0.34,-0.428 -0.213,-0.673 0.086,-0.166 0.252,-0.263 0.426,-0.27 0.083,-0.003 0.169,0.015 0.248,0.056 l 0.444,0.23 C 0.457,-0.817 0.553,-0.515 0.426,-0.27 0.34,-0.104 0.174,-0.006 0,0" /></g><g
           transform="translate(701.3427,98.8233)"
           id="g3741"><path
             id="path3743"
             style="fill:#0000ee;fill-opacity:1;fill-rule:nonzero;stroke:none"
             d="M 0,0 C 0.001,0 0.001,0 0.001,0 0,0 0,0 0,0 l -0.001,0 c 0,0 -0.001,0 -0.001,0 l -0.001,0 c 0,0 0,0 0,0 L -0.501,0.017 C -0.565,0.019 -0.626,0.009 -0.683,-0.011 -0.726,0.008 -0.771,0.021 -0.816,0.028 L -0.928,0.032 C -1.079,0.02 -1.223,-0.06 -1.311,-0.198 L -1.58,-0.619 c -0.148,-0.233 -0.08,-0.542 0.153,-0.691 0.003,-10e-4 0.005,-0.003 0.008,-0.004 0.232,-0.143 0.536,-0.073 0.682,0.157 0,0 0.057,0.089 0.118,0.185 L 0.001,0 c 0,0 0,0 -0.001,0" /></g><g
           transform="translate(698.1075,97.6533)"
           id="g3745"><path
             id="path3747"
             style="fill:#0000ee;fill-opacity:1;fill-rule:nonzero;stroke:none"
             d="m 0,0 c -0.083,0.003 -0.168,-0.015 -0.247,-0.055 l -0.445,-0.231 c -0.245,-0.127 -0.341,-0.429 -0.214,-0.674 0.086,-0.166 0.252,-0.263 0.426,-0.27 0.083,-0.003 0.169,0.015 0.248,0.056 l 0.444,0.23 C 0.457,-0.817 0.553,-0.515 0.426,-0.27 0.34,-0.104 0.174,-0.006 0,0" /></g><g
           transform="translate(696.7998,65.6662)"
           id="g3749"><path
             id="path3751"
             style="fill:#0000ee;fill-opacity:1;fill-rule:nonzero;stroke:none"
             d="M 0,0 -0.428,0.258 C -0.503,0.304 -0.586,0.327 -0.667,0.33 -0.843,0.337 -1.017,0.25 -1.115,0.089 -1.257,-0.147 -1.182,-0.454 -0.947,-0.597 l 0.432,-0.26 c 0.074,-0.045 0.156,-0.068 0.238,-0.071 0.175,-0.006 0.349,0.08 0.447,0.242 C 0.312,-0.45 0.236,-0.143 0,0" /></g><g
           transform="translate(698.7858,64.1235)"
           id="g3753"><path
             id="path3755"
             style="fill:#0000ee;fill-opacity:1;fill-rule:nonzero;stroke:none"
             d="M 0,0 -0.428,0.258 C -0.503,0.304 -0.586,0.327 -0.667,0.33 -0.843,0.337 -1.017,0.25 -1.115,0.089 -1.257,-0.147 -1.182,-0.454 -0.947,-0.597 l 0.432,-0.26 c 0.074,-0.045 0.156,-0.068 0.238,-0.071 0.175,-0.006 0.349,0.08 0.447,0.242 C 0.312,-0.45 0.236,-0.143 0,0" /></g><g
           transform="translate(693.7847,67.4576)"
           id="g3757"><path
             id="path3759"
             style="fill:#0000ee;fill-opacity:1;fill-rule:nonzero;stroke:none"
             d="M 0,0 -0.428,0.258 C -0.503,0.304 -0.585,0.327 -0.667,0.33 -0.843,0.337 -1.017,0.25 -1.114,0.089 -1.257,-0.147 -1.182,-0.454 -0.946,-0.597 l 0.43,-0.26 c 0.075,-0.045 0.157,-0.068 0.239,-0.071 0.175,-0.006 0.349,0.08 0.447,0.242 C 0.312,-0.45 0.237,-0.143 0,0" /></g><g
           transform="translate(695.0005,96.0421)"
           id="g3761"><path
             id="path3763"
             style="fill:#0000ee;fill-opacity:1;fill-rule:nonzero;stroke:none"
             d="m 0,0 c -0.083,0.003 -0.168,-0.015 -0.248,-0.055 l -0.446,-0.232 c -0.244,-0.127 -0.339,-0.428 -0.212,-0.673 0.086,-0.166 0.252,-0.263 0.426,-0.27 0.083,-0.003 0.169,0.015 0.248,0.056 l 0.444,0.23 C 0.457,-0.817 0.553,-0.515 0.426,-0.27 0.34,-0.104 0.174,-0.006 0,0" /></g><g
           transform="translate(698.9879,83.524)"
           id="g3765"><path
             id="path3767"
             style="fill:#0000ee;fill-opacity:1;fill-rule:nonzero;stroke:none"
             d="m 0,0 c -0.045,-0.07 -0.072,-0.151 -0.078,-0.24 l -0.023,-0.433 c -0.002,-0.042 -0.003,-0.069 -0.003,-0.069 -0.015,-0.275 0.196,-0.511 0.472,-0.526 0.187,-0.009 0.354,0.084 0.448,0.231 0.045,0.07 0.073,0.153 0.078,0.242 l 0.027,0.499 C 0.936,-0.02 0.724,0.216 0.448,0.23 0.262,0.24 0.094,0.147 0,0" /></g><g
           transform="translate(698.8035,80.1007)"
           id="g3769"><path
             id="path3771"
             style="fill:#0000ee;fill-opacity:1;fill-rule:nonzero;stroke:none"
             d="m 0,0 c -0.045,-0.07 -0.073,-0.153 -0.078,-0.242 l -0.027,-0.501 c -0.014,-0.275 0.198,-0.51 0.473,-0.525 0.186,-0.01 0.354,0.084 0.448,0.231 0.045,0.07 0.073,0.153 0.078,0.242 l 0.027,0.499 C 0.936,-0.02 0.724,0.215 0.448,0.23 0.262,0.24 0.094,0.147 0,0" /></g><g
           transform="translate(699.1693,86.8675)"
           id="g3773"><path
             id="path3775"
             style="fill:#0000ee;fill-opacity:1;fill-rule:nonzero;stroke:none"
             d="m 0,0 c -0.045,-0.07 -0.073,-0.153 -0.078,-0.242 0,0 -0.002,-0.043 -0.005,-0.104 l 0,-0.003 0,-0.001 -0.022,-0.394 c -0.013,-0.275 0.198,-0.509 0.473,-0.524 0.186,-0.01 0.354,0.084 0.448,0.231 0.045,0.07 0.073,0.153 0.078,0.242 l 0.027,0.499 C 0.935,-0.02 0.724,0.215 0.448,0.23 0.262,0.24 0.094,0.147 0,0" /></g><g
           transform="translate(698.6216,76.7484)"
           id="g3777"><path
             id="path3779"
             style="fill:#0000ee;fill-opacity:1;fill-rule:nonzero;stroke:none"
             d="m 0,0 c -0.045,-0.07 -0.073,-0.152 -0.078,-0.241 l -0.026,-0.501 c -0.015,-0.276 0.197,-0.511 0.472,-0.525 0.187,-0.01 0.355,0.083 0.448,0.23 0.045,0.07 0.073,0.153 0.078,0.242 l 0.027,0.499 C 0.936,-0.02 0.724,0.216 0.448,0.23 0.262,0.24 0.094,0.147 0,0" /></g><g
           transform="translate(698.2641,70.2059)"
           id="g3781"><path
             id="path3783"
             style="fill:#0000ee;fill-opacity:1;fill-rule:nonzero;stroke:none"
             d="m 0,0 c -0.045,-0.07 -0.072,-0.152 -0.078,-0.24 l -0.018,-0.342 0,0 0,-0.003 c -0.005,-0.087 -0.008,-0.157 -0.008,-0.157 -0.015,-0.275 0.196,-0.511 0.472,-0.526 0.187,-0.009 0.355,0.084 0.448,0.231 0.045,0.07 0.073,0.153 0.078,0.242 l 0.027,0.499 C 0.936,-0.02 0.724,0.216 0.448,0.23 0.262,0.24 0.094,0.147 0,0" /></g><g
           transform="translate(698.178,66.7714)"
           id="g3785"><path
             id="path3787"
             style="fill:#0000ee;fill-opacity:1;fill-rule:nonzero;stroke:none"
             d="m 0,0 c -0.045,-0.07 -0.072,-0.152 -0.078,-0.24 l -0.018,-0.342 c 0,0 0,0 0,0 l 0,-0.003 c -0.005,-0.087 -0.008,-0.157 -0.008,-0.157 -0.015,-0.275 0.196,-0.511 0.472,-0.526 0.187,-0.009 0.355,0.084 0.448,0.231 0.045,0.07 0.073,0.153 0.078,0.242 l 0.027,0.499 C 0.936,-0.02 0.724,0.216 0.448,0.23 0.262,0.24 0.094,0.147 0,0" /></g><g
           transform="translate(698.4398,73.3931)"
           id="g3789"><path
             id="path3791"
             style="fill:#0000ee;fill-opacity:1;fill-rule:nonzero;stroke:none"
             d="m 0,0 c -0.045,-0.07 -0.073,-0.153 -0.078,-0.242 0,0 -0.005,-0.103 -0.011,-0.215 l 0,0 c 0,-0.002 0,-0.003 0,-0.005 l -0.016,-0.281 c -0.013,-0.275 0.198,-0.51 0.473,-0.525 0.186,-0.01 0.354,0.084 0.448,0.231 0.045,0.07 0.073,0.153 0.078,0.242 l 0.027,0.499 C 0.936,-0.02 0.724,0.215 0.448,0.23 0.262,0.24 0.094,0.147 0,0" /></g><g
           transform="translate(699.3488,90.1602)"
           id="g3793"><path
             id="path3795"
             style="fill:#0000ee;fill-opacity:1;fill-rule:nonzero;stroke:none"
             d="m 0,0 c -0.045,-0.07 -0.072,-0.152 -0.078,-0.24 l -0.026,-0.503 c -0.014,-0.275 0.197,-0.51 0.472,-0.525 0.187,-0.009 0.355,0.084 0.448,0.231 0.045,0.07 0.073,0.153 0.078,0.242 l 0.027,0.499 C 0.936,-0.02 0.724,0.216 0.448,0.23 0.262,0.24 0.094,0.147 0,0" /></g><g
           transform="translate(699.7004,96.5435)"
           id="g3797"><path
             id="path3799"
             style="fill:#0000ee;fill-opacity:1;fill-rule:nonzero;stroke:none"
             d="m 0,0 c -0.045,-0.07 -0.073,-0.152 -0.078,-0.241 l -0.026,-0.501 c -0.015,-0.276 0.196,-0.511 0.472,-0.525 0.187,-0.01 0.355,0.083 0.448,0.23 0.045,0.07 0.073,0.153 0.078,0.242 l 0.027,0.499 C 0.936,-0.02 0.724,0.216 0.448,0.23 0.262,0.24 0.094,0.147 0,0" /></g><g
           transform="translate(699.5266,93.4025)"
           id="g3801"><path
             id="path3803"
             style="fill:#0000ee;fill-opacity:1;fill-rule:nonzero;stroke:none"
             d="m 0,0 c -0.045,-0.07 -0.073,-0.153 -0.078,-0.242 l -0.027,-0.501 c -0.013,-0.275 0.198,-0.51 0.473,-0.525 0.186,-0.01 0.354,0.084 0.448,0.231 0.045,0.07 0.073,0.153 0.078,0.242 l 0.027,0.499 C 0.935,-0.02 0.724,0.215 0.448,0.23 0.262,0.24 0.094,0.147 0,0" /></g><g
           transform="translate(699.365,62.783)"
           id="g3805"><path
             id="path3807"
             style="fill:#0000ee;fill-opacity:1;fill-rule:nonzero;stroke:none"
             d="M 0,0 -0.735,0.801 22.386,22.063 23.121,21.262 0,0 Z" /></g><g
           transform="translate(674.7871,56.8019)"
           id="g3809"><path
             id="path3811"
             style="fill:#0000ee;fill-opacity:1;fill-rule:nonzero;stroke:none"
             d="M 0,0 -0.254,1.057 24.083,6.91 24.337,5.853 0,0 Z" /></g><g
           transform="translate(705.8681,56.7694)"
           id="g3813"><path
             id="path3815"
             style="fill:#0000ee;fill-opacity:1;fill-rule:nonzero;stroke:none"
             d="M 0,0 -7.218,5.996 -6.524,6.833 0.694,0.837 0,0 Z" /></g><g
           transform="translate(700.7281,98.7199)"
           id="g3817"><path
             id="path3819"
             style="fill:#0000ee;fill-opacity:1;fill-rule:nonzero;stroke:none"
             d="m 0,0 -26.06,12.779 0.478,0.977 L 0.478,0.977 0,0 Z" /></g><g
           transform="translate(668.3329,81.8873)"
           id="g3821"><path
             id="path3823"
             style="fill:#0000ee;fill-opacity:1;fill-rule:nonzero;stroke:none"
             d="M 0,0 -1.058,0.25 6.045,30.225 7.103,29.975 0,0 Z" /></g><g
           transform="translate(701.4651,98.9911)"
           id="g3825"><path
             id="path3827"
             style="fill:#0000ee;fill-opacity:1;fill-rule:nonzero;stroke:none"
             d="M 0,0 -0.995,0.435 4.501,13.071 5.497,12.636 0,0 Z" /></g><g
           transform="translate(721.8064,84)"
           id="g3829"><path
             id="path3831"
             style="fill:#0000ee;fill-opacity:1;fill-rule:nonzero;stroke:none"
             d="m 0,0 -21.151,14.763 0.624,0.891 L 0.624,0.891 0,0 Z" /></g><g
           transform="translate(667.6445,81.4931)"
           id="g3833"><path
             id="path3835"
             style="fill:#0000ee;fill-opacity:1;fill-rule:nonzero;stroke:none"
             d="M 0,0 -8.798,2.719 -8.479,3.757 0.319,1.038 0,0 Z" /></g><g
           transform="translate(674.1362,57.1853)"
           id="g3837"><path
             id="path3839"
             style="fill:#0000ee;fill-opacity:1;fill-rule:nonzero;stroke:none"
             d="m 0,0 -6.856,24.682 1.048,0.29 L 1.048,0.29 0,0 Z" /></g><g
           transform="translate(546.8507,44.0411)"
           id="g3841"><path
             id="path3843"
             style="fill:#0000ee;fill-opacity:1;fill-rule:nonzero;stroke:none"
             d="m 0,0 c -2.753,2.84 -6.163,4.26 -10.231,4.26 -2.944,0 -5.538,-0.755 -7.792,-2.242 l 0.911,-0.742 c 0.166,-0.135 0.359,-0.323 0.566,-0.546 1.839,1.144 3.946,1.729 6.338,1.729 3.527,0 6.446,-1.244 8.76,-3.732 2.312,-2.489 3.469,-5.54 3.469,-9.154 0,-3.616 -1.157,-6.659 -3.469,-9.132 -2.314,-2.474 -5.233,-3.71 -8.76,-3.71 -3.529,0 -6.453,1.236 -8.781,3.71 -2.327,2.473 -3.492,5.516 -3.492,9.132 0,2.303 0.478,4.375 1.423,6.221 l -1.727,1.069 c -1.193,-2.156 -1.801,-4.582 -1.801,-7.29 0,-4.113 1.373,-7.589 4.126,-10.428 2.75,-2.84 6.16,-4.258 10.229,-4.258 4.068,0 7.478,1.418 10.231,4.258 2.75,2.839 4.126,6.315 4.126,10.428 C 4.126,-6.315 2.75,-2.839 0,0" /></g><g
           transform="translate(477.6707,46.0831)"
           id="g3845"><path
             id="path3847"
             style="fill:#0000ee;fill-opacity:1;fill-rule:nonzero;stroke:none"
             d="m 0,0 c -1.699,1.302 -3.77,1.954 -6.213,1.954 -2.446,0 -4.766,-0.118 -6.961,-0.352 l 0,-28.319 2.021,0 0,26.739 c 1.58,0.117 2.956,0.176 4.126,0.176 2.224,0 4.018,-0.499 5.379,-1.494 1.363,-0.994 2.042,-2.59 2.042,-4.785 0,-2.195 -0.967,-3.981 -2.898,-5.356 -0.641,-0.457 -1.754,-0.945 -2.589,-1.28 l 0,-1.557 c 1.235,0.425 3.15,1.15 4.171,1.892 2.312,1.683 3.469,3.843 3.469,6.477 C 2.547,-3.27 1.696,-1.302 0,0" /></g><g
           transform="translate(564.4924,22.6157)"
           id="g3849"><path
             id="path3851"
             style="fill:#0000ee;fill-opacity:1;fill-rule:nonzero;stroke:none"
             d="m 0,0 c 0,-4.274 -2.105,-7.946 -6.322,-11.021 l 0.922,-1.316 c 1.522,1.083 2.766,2.122 3.733,3.118 0.967,0.993 1.815,2.398 2.547,4.213 0.731,1.815 1.096,3.907 1.096,6.279 l 0,23.972 L 0,25.245 0,0 Z" /></g><g
           transform="translate(584.0487,34.0304)"
           id="g3853"><path
             id="path3855"
             style="fill:#0000ee;fill-opacity:1;fill-rule:nonzero;stroke:none"
             d="m 0,0 10.186,0 0,1.713 -10.186,0 0,10.362 11.283,0 0,1.756 -13.304,0 0,-28.495 13.745,0 0,1.844 L 0,-12.82 0,0 Z" /></g><g
           transform="translate(621.7588,20.7718)"
           id="g3857"><path
             id="path3859"
             style="fill:#0000ee;fill-opacity:1;fill-rule:nonzero;stroke:none"
             d="m 0,0 c -3.366,0 -6.329,1.257 -8.892,3.775 -2.56,2.517 -3.841,5.569 -3.841,9.155 0,3.584 1.104,6.614 3.315,9.088 2.209,2.473 4.94,3.711 8.19,3.711 3.246,0 6.392,-0.469 9.438,-1.406 l 0.526,1.669 c -3.159,1.025 -6.395,1.537 -9.703,1.537 -4.097,0 -7.442,-1.405 -10.03,-4.215 -2.592,-2.811 -3.886,-6.302 -3.886,-10.471 0,-4.172 1.484,-7.663 4.456,-10.473 2.97,-2.809 6.409,-4.214 10.316,-4.214 3.91,0 6.961,0.613 9.156,1.844 L 8.385,1.405 C 6.16,0.468 3.365,0 0,0" /></g><g
           transform="translate(640.6732,46.0607)"
           id="g3861"><path
             id="path3863"
             style="fill:#0000ee;fill-opacity:1;fill-rule:nonzero;stroke:none"
             d="m 0,0 9.658,0 0,-26.694 1.976,0 0,26.694 9.661,0 0,1.8 L 0,1.8 0,0 Z" /></g><g
           transform="translate(503.4879,31.6595)"
           id="g3865"><path
             id="path3867"
             style="fill:#0000ee;fill-opacity:1;fill-rule:nonzero;stroke:none"
             d="m 0,0 c 1.257,0.907 2.385,2.094 3.379,3.557 0.996,1.464 1.495,3.058 1.495,4.785 0,2.576 -0.88,4.559 -2.636,5.95 -1.757,1.39 -3.981,2.085 -6.673,2.085 -1.757,0 -3.894,-0.103 -6.412,-0.306 l 0,-28.364 2.021,0 0,26.739 c 1.58,0.116 2.956,0.176 4.126,0.176 2.196,0 3.981,-0.527 5.358,-1.581 1.376,-1.054 2.063,-2.59 2.063,-4.61 0,-2.02 -0.658,-3.792 -1.976,-5.314 -1.316,-1.521 -2.01,-2.089 -3.152,-2.089 l -0.355,-0.452 0.918,-1.409 c 0,0 5.64,-7.656 6.652,-8.739 1.009,-1.083 2.026,-1.849 3.051,-2.304 1.022,-0.454 2.356,-0.694 3.994,-0.724 l 0.045,1.361 c -1.963,0.232 -3.777,1.215 -5.444,2.94 C 5.635,-7.39 3.482,-4.624 0,0" /></g><g
           transform="translate(378.9965,43.5326)"
           id="g3869"><path
             id="path3871"
             style="fill:#0000ee;fill-opacity:1;fill-rule:nonzero;stroke:none"
             d="m 0,0 c -2.753,2.84 -6.163,4.26 -10.231,4.26 -2.944,0 -5.539,-0.755 -7.792,-2.242 l 0.911,-0.742 c 0.166,-0.135 0.359,-0.323 0.566,-0.546 1.839,1.144 3.946,1.729 6.338,1.729 3.527,0 6.446,-1.244 8.76,-3.732 2.312,-2.489 3.469,-5.54 3.469,-9.154 0,-3.616 -1.157,-6.659 -3.469,-9.132 -2.314,-2.474 -5.233,-3.71 -8.76,-3.71 -3.529,0 -6.453,1.236 -8.781,3.71 -2.327,2.473 -3.492,5.516 -3.492,9.132 0,2.303 0.478,4.375 1.423,6.221 l -1.727,1.069 c -1.193,-2.156 -1.801,-4.582 -1.801,-7.29 0,-4.113 1.373,-7.589 4.126,-10.428 2.75,-2.84 6.16,-4.258 10.229,-4.258 4.068,0 7.478,1.418 10.231,4.258 2.75,2.839 4.126,6.315 4.126,10.428 C 4.126,-6.315 2.75,-2.839 0,0" /></g><g
           transform="translate(404.3369,31.9237)"
           id="g3873"><path
             id="path3875"
             style="fill:#0000ee;fill-opacity:1;fill-rule:nonzero;stroke:none"
             d="m 0,0 c 1.257,0.907 2.385,2.094 3.379,3.557 0.996,1.464 1.495,3.058 1.495,4.785 0,2.576 -0.88,4.559 -2.636,5.95 -1.757,1.39 -3.981,2.085 -6.673,2.085 -1.757,0 -3.894,-0.103 -6.412,-0.306 l 0,-28.364 2.021,0 0,26.739 c 1.58,0.116 2.956,0.176 4.126,0.176 2.196,0 3.981,-0.527 5.358,-1.581 1.376,-1.054 2.063,-2.59 2.063,-4.61 0,-2.02 -0.658,-3.792 -1.976,-5.314 -1.316,-1.521 -2.01,-2.089 -3.152,-2.089 l -0.355,-0.452 0.918,-1.409 c 0,0 5.64,-7.656 6.652,-8.739 1.009,-1.083 2.026,-1.849 3.051,-2.304 1.022,-0.454 2.356,-0.694 3.994,-0.724 l 0.045,1.361 c -1.963,0.232 -3.777,1.215 -5.444,2.94 C 5.635,-7.39 3.482,-4.624 0,0" /></g><g
           transform="translate(267.3326,48.3008)"
           id="g3877"><path
             id="path3879"
             style="fill:#0000ee;fill-opacity:1;fill-rule:nonzero;stroke:none"
             d="m 0,0 -1.186,0 -9.877,-21.074 c -0.587,-1.201 -0.983,-2.108 -1.186,-2.722 0,0.087 -0.352,1.009 -1.055,2.766 L -22.172,0 l -1.186,0 -4.654,-28.67 1.976,0 3.294,21.557 c 0.058,0.323 0.116,0.725 0.174,1.208 0.058,0.483 0.111,0.87 0.153,1.163 0.045,0.292 0.066,0.455 0.066,0.484 0.352,-1.054 0.703,-1.976 1.054,-2.766 l 8.298,-20.154 1.186,0 9.352,20.109 1.273,2.898 c 0,-0.468 0.103,-1.42 0.309,-2.853 l 3.117,-21.646 2.106,0 L 0,0 Z" /></g><g
           transform="translate(286.9181,34.2946)"
           id="g3881"><path
             id="path3883"
             style="fill:#0000ee;fill-opacity:1;fill-rule:nonzero;stroke:none"
             d="m 0,0 10.186,0 0,1.713 -10.186,0 0,10.362 11.283,0 0,1.756 -13.304,0 0,-28.495 13.745,0 0,1.844 L 0,-12.82 0,0 Z" /></g><g
           transform="translate(338.4612,48.3008)"
           id="g3885"><path
             id="path3887"
             style="fill:#0000ee;fill-opacity:1;fill-rule:nonzero;stroke:none"
             d="m 0,0 -9.877,-21.074 c -0.587,-1.201 -0.983,-2.108 -1.186,-2.722 0,0.087 -0.352,1.009 -1.054,2.766 L -20.986,0 l -1.186,0 -4.654,-28.67 1.976,0 3.294,21.557 c 0.058,0.323 0.116,0.725 0.174,1.208 0.058,0.483 0.111,0.87 0.153,1.163 0.045,0.292 0.066,0.455 0.066,0.484 0.352,-1.054 0.703,-1.976 1.054,-2.766 l 8.298,-20.154 1.186,0 9.352,20.109 L 0,-4.171 c 0,-0.468 0.103,-1.42 0.309,-2.853 l 3.117,-21.646 2.106,0 L 1.186,0 0,0 Z" /></g><g
           transform="translate(430.4262,19.6306)"
           id="g3889"><path
             id="path3891"
             style="fill:#0000ee;fill-opacity:1;fill-rule:nonzero;stroke:none"
             d="m 0,0 1.976,0 0,10.098 10.757,18.397 -2.282,0 L 2.153,14.313 C 1.596,13.347 1.231,12.673 1.054,12.293 0.967,12.382 0.6,13.068 -0.042,14.358 l -8.298,14.137 -2.417,0 L 0,10.186 0,0 Z" /></g><g
           transform="translate(86.1362,21.2103)"
           id="g3893"><path
             id="path3895"
             style="fill:#0000ee;fill-opacity:1;fill-rule:nonzero;stroke:none"
             d="m 0,0 -13.084,0 0,26.651 -2.021,0 0,-28.495 L 0,-1.844 0,0 Z" /></g><g
           transform="translate(147.4629,18.9279)"
           id="g3897"><path
             id="path3899"
             style="fill:#0000ee;fill-opacity:1;fill-rule:nonzero;stroke:none"
             d="M 0,0 C 3.91,0 6.961,0.614 9.156,1.844 L 8.496,3.248 C 6.271,2.311 3.476,1.844 0.111,1.844 c -3.366,0 -6.33,1.257 -8.892,3.775 -2.56,2.517 -3.841,5.569 -3.841,9.155 0,3.584 1.104,6.614 3.315,9.088 2.209,2.473 4.94,3.711 8.19,3.711 3.246,0 6.392,-0.469 9.438,-1.406 l 0.526,1.668 c -3.159,1.025 -6.396,1.538 -9.703,1.538 -4.097,0 -7.442,-1.405 -10.03,-4.215 -2.592,-2.811 -3.886,-6.302 -3.886,-10.472 0,-4.171 1.484,-7.662 4.456,-10.471 C -7.347,1.404 -3.907,0 0,0" /></g><g
           transform="translate(217.4516,21.2103)"
           id="g3901"><path
             id="path3903"
             style="fill:#0000ee;fill-opacity:1;fill-rule:nonzero;stroke:none"
             d="m 0,0 -13.084,0 0,26.651 -2.021,0 0,-28.495 L 0,-1.844 0,0 Z" /></g><g
           transform="translate(172.5985,29.245)"
           id="g3905"><path
             id="path3907"
             style="fill:#0000ee;fill-opacity:1;fill-rule:nonzero;stroke:none"
             d="m 0,0 0.703,1.713 4.39,10.536 c 0.352,0.879 0.748,1.976 1.186,3.293 0.204,-0.585 0.645,-1.697 1.318,-3.336 l 4.346,-10.493 4.829,-11.592 2.24,0 -12.03,28.671 -1.186,0 -11.943,-28.671 2.066,0 L 0,0 Z" /></g><g
           transform="translate(184.5209,32.3646)"
           id="g3909"><path
             id="path3911"
             style="fill:#0000ee;fill-opacity:1;fill-rule:nonzero;stroke:none"
             d="m 0,0 -6.406,0 -0.628,-1.713 7.754,0" /></g><g
           transform="translate(118.907,44.0411)"
           id="g3913"><path
             id="path3915"
             style="fill:#0000ee;fill-opacity:1;fill-rule:nonzero;stroke:none"
             d="m 0,0 c -2.753,2.84 -6.163,4.26 -10.231,4.26 -2.944,0 -5.538,-0.755 -7.792,-2.242 l 0.912,-0.742 c 0.165,-0.135 0.358,-0.323 0.565,-0.546 1.839,1.143 3.946,1.729 6.338,1.729 3.527,0 6.446,-1.244 8.76,-3.732 2.312,-2.489 3.469,-5.54 3.469,-9.154 0,-3.616 -1.157,-6.659 -3.469,-9.132 -2.314,-2.474 -5.233,-3.71 -8.76,-3.71 -3.529,0 -6.453,1.236 -8.781,3.71 -2.327,2.473 -3.492,5.516 -3.492,9.132 0,2.303 0.478,4.375 1.424,6.221 l -1.728,1.069 c -1.193,-2.156 -1.801,-4.582 -1.801,-7.29 0,-4.113 1.374,-7.589 4.126,-10.428 2.75,-2.84 6.16,-4.258 10.229,-4.258 4.068,0 7.478,1.418 10.231,4.258 2.75,2.839 4.126,6.315 4.126,10.428 C 4.126,-6.315 2.75,-2.839 0,0" /></g><g
           transform="translate(674.2206,40.2705)"
           id="g3917"><path
             id="path3919"
             style="fill:#000000;fill-opacity:1;fill-rule:nonzero;stroke:none"
             d="m 0,0 c -0.339,-0.435 -0.508,-1.085 -0.508,-1.953 0,-1.164 0.302,-2.133 0.905,-2.905 0.603,-0.773 1.338,-1.159 2.207,-1.159 0.55,0 1.01,0.227 1.381,0.683 0.37,0.454 0.556,1.158 0.556,2.111 0,1.121 -0.318,2.048 -0.953,2.779 C 2.953,0.285 2.212,0.65 1.365,0.65 0.794,0.65 0.339,0.434 0,0 m 5.906,-18.178 c 0.825,0.763 1.239,1.695 1.239,2.794 0,0.826 -0.255,1.461 -0.763,1.905 -0.508,0.445 -1.111,0.752 -1.81,0.921 -0.698,0.17 -1.651,0.339 -2.857,0.508 -0.403,0.043 -0.901,0.127 -1.492,0.254 -0.593,-0.444 -1.054,-0.936 -1.381,-1.476 -0.329,-0.54 -0.492,-1.222 -0.492,-2.048 0,-1.248 0.38,-2.228 1.142,-2.937 0.762,-0.709 1.788,-1.063 3.08,-1.063 1.397,0 2.508,0.381 3.334,1.142 m 0.397,7.382 c 0.73,-0.18 1.381,-0.523 1.952,-1.031 0.572,-0.508 0.857,-1.238 0.857,-2.192 0,-1.015 -0.359,-2.004 -1.079,-2.967 -0.72,-0.964 -1.693,-1.752 -2.921,-2.367 -1.228,-0.613 -2.54,-0.92 -3.937,-0.92 -1.524,0 -2.757,0.355 -3.699,1.064 -0.942,0.709 -1.413,1.614 -1.413,2.714 0,1.609 1.175,3.228 3.525,4.858 -1.419,0.402 -2.128,1.143 -2.128,2.223 0,0.55 0.212,1.111 0.635,1.683 0.424,0.571 0.995,1.089 1.715,1.555 -0.847,0.296 -1.503,0.767 -1.969,1.413 -0.466,0.646 -0.698,1.35 -0.698,2.112 0,1.122 0.503,2.037 1.507,2.746 1.006,0.709 2.197,1.063 3.573,1.063 1.418,0 2.529,-0.339 3.334,-1.015 0.591,0.359 1.159,0.629 1.698,0.809 0.54,0.18 1.116,0.27 1.73,0.27 0.064,0 0.117,-0.079 0.16,-0.238 C 9.187,0.825 9.208,0.65 9.208,0.46 9.208,0.185 9.171,-0.096 9.097,-0.381 9.022,-0.667 8.943,-0.789 8.858,-0.746 8.033,-0.408 7.303,-0.238 6.668,-0.238 6.541,-0.238 6.329,-0.26 6.033,-0.302 6.604,-0.937 6.89,-1.678 6.89,-2.524 6.89,-3.266 6.668,-3.942 6.224,-4.557 5.779,-5.171 5.17,-5.652 4.397,-6.001 3.625,-6.351 2.783,-6.525 1.873,-6.525 c -0.635,0 -1.186,0.074 -1.65,0.222 -0.657,-0.487 -0.985,-1.091 -0.985,-1.809 0,-0.657 0.318,-1.117 0.952,-1.382 0.636,-0.265 1.567,-0.491 2.794,-0.683 1.482,-0.232 2.588,-0.439 3.319,-0.619" /></g><g
           transform="translate(688.6835,40.1113)"
           id="g3921"><path
             id="path3923"
             style="fill:#000000;fill-opacity:1;fill-rule:nonzero;stroke:none"
             d="m 0,0 c -0.54,-0.497 -0.927,-1.201 -1.159,-2.111 l 5.461,0.127 C 4.259,-1.116 4.042,-0.444 3.651,0.032 3.259,0.508 2.715,0.746 2.016,0.746 1.211,0.746 0.539,0.497 0,0 m 6.842,-9.287 c 0.063,0 0.127,-0.037 0.19,-0.111 0.064,-0.075 0.064,-0.132 0,-0.174 -0.741,-0.699 -1.497,-1.202 -2.269,-1.509 -0.774,-0.307 -1.604,-0.46 -2.493,-0.46 -1.27,0 -2.366,0.28 -3.287,0.841 -0.92,0.56 -1.619,1.312 -2.095,2.255 -0.476,0.941 -0.714,1.952 -0.714,3.032 0,1.248 0.302,2.392 0.905,3.429 0.603,1.037 1.439,1.857 2.508,2.461 1.068,0.603 2.249,0.904 3.54,0.904 1.185,0 2.106,-0.28 2.763,-0.841 0.655,-0.561 0.984,-1.329 0.984,-2.302 0,-0.551 -0.117,-0.826 -0.35,-0.826 l -7.779,-0.031 c -0.084,-0.424 -0.127,-0.943 -0.127,-1.556 0,-1.821 0.44,-3.292 1.319,-4.413 0.877,-1.123 2.089,-1.683 3.634,-1.683 1.228,0 2.308,0.328 3.24,0.984 l 0.031,0 z" /></g><g
           transform="translate(707.5585,30.3799)"
           id="g3925"><path
             id="path3927"
             style="fill:#000000;fill-opacity:1;fill-rule:nonzero;stroke:none"
             d="m 0,0 c 0.571,0.825 0.857,2.063 0.857,3.715 0,1.376 -0.207,2.588 -0.619,3.636 -0.413,1.047 -0.979,1.851 -1.699,2.413 -0.72,0.56 -1.523,0.84 -2.413,0.84 -1.037,0 -1.836,-0.396 -2.397,-1.19 C -6.832,8.62 -7.112,7.45 -7.112,5.905 c 0,-1.333 0.201,-2.545 0.603,-3.634 0.402,-1.091 0.957,-1.949 1.667,-2.573 0.709,-0.624 1.508,-0.936 2.397,-0.936 1.058,0 1.874,0.413 2.445,1.238 m -6.668,-0.937 c -0.952,0.604 -1.688,1.418 -2.207,2.445 -0.519,1.026 -0.777,2.143 -0.777,3.349 0,1.376 0.338,2.546 1.015,3.509 0.678,0.963 1.545,1.683 2.604,2.159 1.058,0.477 2.137,0.714 3.239,0.714 1.27,0 2.375,-0.306 3.317,-0.92 C 1.465,9.705 2.19,8.896 2.698,7.89 3.207,6.885 3.461,5.811 3.461,4.667 3.461,3.376 3.148,2.238 2.523,1.254 1.899,0.27 1.068,-0.492 0.031,-1.032 c -1.037,-0.539 -2.159,-0.81 -3.365,-0.81 -1.27,0 -2.382,0.302 -3.334,0.905" /></g></g></g></g></svg>