<?xml version="1.0" encoding="UTF-8" standalone="no"?>
<svg
   xmlns:dc="http://purl.org/dc/elements/1.1/"
   xmlns:cc="http://creativecommons.org/ns#"
   xmlns:rdf="http://www.w3.org/1999/02/22-rdf-syntax-ns#"
   xmlns:svg="http://www.w3.org/2000/svg"
   xmlns="http://www.w3.org/2000/svg"
   viewBox="0 0 990 161.25"
   height="161.25"
   width="990"
   xml:space="preserve"
   version="1.1"
   id="svg3355"><metadata
     id="metadata3361"><rdf:RDF><cc:Work
         rdf:about=""><dc:format>image/svg+xml</dc:format><dc:type
           rdf:resource="http://purl.org/dc/dcmitype/StillImage" /><dc:title></dc:title></cc:Work></rdf:RDF></metadata><defs
     id="defs3359"><clipPath
       id="clipPath3369"
       clipPathUnits="userSpaceOnUse"><path
         id="path3371"
         d="M 0,129 792,129 792,0 0,0 0,129 Z" /></clipPath></defs><g
     transform="matrix(1.25,0,0,-1.25,0,161.25)"
     id="g3363"><g
       id="g3593"><g
         id="g3373"
         transform="translate(659.633,84.7276)"><path
           d="M 0,0 15.343,-26.855 46.271,-26.995 61.859,-0.279 46.516,26.575 15.585,26.715 0,0 Z m 15.007,-27.94 c -0.187,0.007 -0.359,0.11 -0.451,0.274 l -15.654,27.4 c -0.098,0.168 -0.097,0.375 0.001,0.543 l 15.901,27.256 c 0.098,0.169 0.278,0.272 0.473,0.271 l 31.558,-0.143 c 0.148,0 0.374,-0.105 0.468,-0.275 L 62.957,-0.013 c 0.098,-0.168 0.096,-0.375 -10e-4,-0.543 L 47.052,-27.813 c -0.097,-0.169 -0.278,-0.272 -0.473,-0.271 l -31.555,0.143 c -0.004,0 -0.011,0 -0.017,10e-4"
           style="fill:#0000ee;fill-opacity:1;fill-rule:nonzero;stroke:none"
           id="path3375" /></g><g
         id="g3377"
         transform="translate(685.679,91.2087)"><path
           d="m 0,0 c -0.083,0.003 -0.167,-0.014 -0.246,-0.055 l -0.385,-0.2 c -0.037,-0.019 -0.061,-0.031 -0.061,-0.031 -0.245,-0.127 -0.341,-0.429 -0.214,-0.674 0.086,-0.166 0.252,-0.263 0.426,-0.27 0.083,-0.003 0.169,0.015 0.248,0.056 l 0.444,0.23 C 0.457,-0.816 0.553,-0.515 0.426,-0.27 0.34,-0.104 0.174,-0.006 0,0"
           style="fill:#0000ee;fill-opacity:1;fill-rule:nonzero;stroke:none"
           id="path3379" /></g><g
         id="g3381"
         transform="translate(684.7092,72.9761)"><path
           d="M 0,0 -0.428,0.258 C -0.503,0.304 -0.585,0.327 -0.667,0.33 -0.843,0.337 -1.017,0.25 -1.114,0.089 -1.257,-0.148 -1.181,-0.455 -0.945,-0.598 l 0.428,-0.258 c 0.075,-0.046 0.158,-0.069 0.24,-0.072 0.176,-0.006 0.349,0.08 0.447,0.242 C 0.312,-0.45 0.237,-0.143 0,0"
           style="fill:#0000ee;fill-opacity:1;fill-rule:nonzero;stroke:none"
           id="path3383" /></g><g
         id="g3385"
         transform="translate(682.572,89.5976)"><path
           d="m 0,0 c -0.083,0.003 -0.169,-0.015 -0.248,-0.056 l -0.445,-0.231 c -0.245,-0.127 -0.34,-0.428 -0.213,-0.673 0.086,-0.166 0.252,-0.263 0.426,-0.27 0.083,-0.003 0.169,0.015 0.248,0.056 l 0.444,0.23 C 0.457,-0.817 0.553,-0.515 0.426,-0.27 0.34,-0.104 0.174,-0.006 0,0"
           style="fill:#0000ee;fill-opacity:1;fill-rule:nonzero;stroke:none"
           id="path3387" /></g><g
         id="g3389"
         transform="translate(690.7021,69.3589)"><path
           d="M 0,0 -0.428,0.258 C -0.503,0.304 -0.585,0.327 -0.667,0.33 -0.843,0.337 -1.017,0.25 -1.114,0.089 -1.257,-0.148 -1.181,-0.454 -0.945,-0.597 l 0.429,-0.259 c 0.075,-0.046 0.157,-0.069 0.239,-0.072 0.175,-0.006 0.35,0.08 0.447,0.242 C 0.313,-0.45 0.237,-0.143 0,0"
           style="fill:#0000ee;fill-opacity:1;fill-rule:nonzero;stroke:none"
           id="path3391" /></g><g
         id="g3393"
         transform="translate(687.7057,71.1675)"><path
           d="m 0,0 -0.428,0.258 c -0.075,0.046 -0.158,0.069 -0.239,0.072 -0.176,0.007 -0.35,-0.08 -0.448,-0.241 -0.142,-0.237 -0.066,-0.544 0.17,-0.687 l 0.041,-0.024 0,0 0.001,-0.001 0.001,0 0,-0.001 c 0,0 0,0 0,0 l 0.015,-0.009 0.001,0 0.001,-0.001 c 0.001,0 0.001,-0.001 0.001,-0.001 l 0.004,-0.002 c 0,0 0,0 0,0 l 0,0 0.001,0 0,-0.001 0.001,0 0.002,-0.001 0.001,-0.001 0,0 c 0.004,-0.002 0.007,-0.004 0.011,-0.006 l 0.001,-0.001 c 0.124,-0.075 0.346,-0.209 0.346,-0.209 0.075,-0.045 0.158,-0.069 0.24,-0.072 0.175,-0.006 0.349,0.08 0.447,0.242 C 0.312,-0.45 0.236,-0.143 0,0"
           style="fill:#0000ee;fill-opacity:1;fill-rule:nonzero;stroke:none"
           id="path3395" /></g><g
         id="g3397"
         transform="translate(681.7128,74.7847)"><path
           d="M 0,0 -0.428,0.258 C -0.503,0.304 -0.586,0.327 -0.667,0.33 -0.843,0.337 -1.017,0.25 -1.115,0.089 -1.257,-0.147 -1.182,-0.454 -0.946,-0.597 l 0.149,-0.09 c 0,0 0.001,-10e-4 0.001,-10e-4 l 0.001,0 c 0.001,-0.001 0.003,-0.002 0.004,-0.003 l 0.001,0 c 0.123,-0.074 0.273,-0.165 0.273,-0.165 0.075,-0.045 0.158,-0.069 0.239,-0.072 0.176,-0.006 0.35,0.08 0.448,0.242 C 0.312,-0.45 0.236,-0.143 0,0"
           style="fill:#0000ee;fill-opacity:1;fill-rule:nonzero;stroke:none"
           id="path3399" /></g><g
         id="g3401"
         transform="translate(688.7863,92.8199)"><path
           d="m 0,0 c -0.083,0.003 -0.169,-0.015 -0.248,-0.056 0,0 -0.038,-0.02 -0.093,-0.048 l -0.002,-0.001 -10e-4,-0.001 -0.35,-0.181 c -0.244,-0.128 -0.339,-0.429 -0.212,-0.673 0.086,-0.166 0.252,-0.263 0.426,-0.27 0.083,-0.003 0.169,0.015 0.248,0.056 l 0.444,0.23 C 0.457,-0.817 0.553,-0.515 0.426,-0.27 0.34,-0.104 0.174,-0.006 0,0"
           style="fill:#0000ee;fill-opacity:1;fill-rule:nonzero;stroke:none"
           id="path3403" /></g><g
         id="g3405"
         transform="translate(675.7197,78.4019)"><path
           d="M 0,0 -0.428,0.258 C -0.503,0.304 -0.585,0.327 -0.667,0.33 -0.843,0.337 -1.017,0.25 -1.114,0.089 -1.257,-0.148 -1.181,-0.455 -0.945,-0.598 l 0.428,-0.258 c 0.075,-0.045 0.158,-0.069 0.24,-0.072 0.175,-0.006 0.35,0.08 0.447,0.242 C 0.312,-0.45 0.237,-0.143 0,0"
           style="fill:#0000ee;fill-opacity:1;fill-rule:nonzero;stroke:none"
           id="path3407" /></g><g
         id="g3409"
         transform="translate(679.5947,88.0455)"><path
           d="m 0,0 c -0.083,0.003 -0.168,-0.015 -0.247,-0.055 l -0.446,-0.231 c -0.244,-0.128 -0.34,-0.429 -0.213,-0.674 0.086,-0.166 0.252,-0.263 0.426,-0.27 0.083,-0.003 0.169,0.015 0.248,0.056 l 0.444,0.23 C 0.457,-0.817 0.553,-0.515 0.426,-0.27 0.34,-0.104 0.174,-0.006 0,0"
           style="fill:#0000ee;fill-opacity:1;fill-rule:nonzero;stroke:none"
           id="path3411" /></g><g
         id="g3413"
         transform="translate(672.1349,80.5836)"><path
           d="m 0,0 -0.428,0.258 c -0.075,0.046 -0.158,0.069 -0.239,0.072 -0.176,0.007 -0.35,-0.08 -0.448,-0.241 -0.142,-0.237 -0.066,-0.544 0.17,-0.687 0,0 0.051,-0.03 0.117,-0.07 l 0,0 c 0.001,-0.001 0.002,-0.001 0.002,-0.002 l 0,0 c 0,0 0.001,0 0.001,0 l 0.31,-0.187 c 0.075,-0.045 0.156,-0.068 0.237,-0.071 0.176,-0.006 0.35,0.08 0.448,0.242 C 0.312,-0.45 0.236,-0.143 0,0"
           style="fill:#0000ee;fill-opacity:1;fill-rule:nonzero;stroke:none"
           id="path3415" /></g><g
         id="g3417"
         transform="translate(669.1994,82.0729)"><path
           d="m 0,0 -0.428,0.258 c -0.075,0.046 -0.158,0.069 -0.239,0.072 -0.176,0.007 -0.35,-0.08 -0.448,-0.241 -0.142,-0.237 -0.066,-0.544 0.17,-0.687 0,0 0.051,-0.03 0.117,-0.07 l 0,0 c 0.001,-0.001 0.002,-0.001 0.002,-0.002 l 0,0 c 0.001,0 0.001,0 0.001,0 l 0.31,-0.187 c 0.075,-0.045 0.156,-0.068 0.237,-0.071 0.176,-0.006 0.35,0.08 0.448,0.242 C 0.312,-0.45 0.236,-0.143 0,0"
           style="fill:#0000ee;fill-opacity:1;fill-rule:nonzero;stroke:none"
           id="path3419" /></g><g
         id="g3421"
         transform="translate(673.6091,84.9762)"><path
           d="m 0,0 c -0.083,0.003 -0.167,-0.014 -0.246,-0.055 l -0.304,-0.157 0,-0.001 -0.003,-0.001 c -0.077,-0.04 -0.139,-0.072 -0.139,-0.072 -0.245,-0.127 -0.341,-0.429 -0.214,-0.674 0.086,-0.166 0.252,-0.263 0.426,-0.27 0.083,-0.003 0.169,0.015 0.248,0.056 l 0.444,0.23 C 0.457,-0.817 0.553,-0.515 0.426,-0.27 0.34,-0.104 0.174,-0.006 0,0"
           style="fill:#0000ee;fill-opacity:1;fill-rule:nonzero;stroke:none"
           id="path3423" /></g><g
         id="g3425"
         transform="translate(670.912,83.5719)"><path
           d="M 0,0 C -0.083,0.003 -0.167,-0.014 -0.246,-0.055 L -0.55,-0.212 -0.551,-0.213 -0.553,-0.214 c -0.077,-0.04 -0.139,-0.072 -0.139,-0.072 -0.245,-0.127 -0.341,-0.429 -0.214,-0.674 0.086,-0.166 0.252,-0.263 0.426,-0.27 0.083,-0.003 0.169,0.015 0.248,0.056 l 0.444,0.23 C 0.457,-0.817 0.553,-0.515 0.426,-0.27 0.34,-0.104 0.174,-0.006 0,0"
           style="fill:#0000ee;fill-opacity:1;fill-rule:nonzero;stroke:none"
           id="path3427" /></g><g
         id="g3429"
         transform="translate(678.7163,76.5934)"><path
           d="m 0,0 -0.428,0.258 c -0.075,0.046 -0.157,0.069 -0.239,0.072 -0.176,0.007 -0.35,-0.08 -0.448,-0.241 -0.142,-0.237 -0.066,-0.544 0.17,-0.687 l 0.042,-0.025 0,0 0,0 0,0 0.001,-0.001 c 0.001,0 0.002,-0.001 0.003,-0.001 l 0,-0.001 c 0.002,-0.001 0.004,-0.002 0.007,-0.003 0.114,-0.069 0.375,-0.227 0.375,-0.227 0.075,-0.045 0.158,-0.069 0.24,-0.072 0.175,-0.006 0.349,0.08 0.447,0.242 C 0.312,-0.45 0.236,-0.143 0,0"
           style="fill:#0000ee;fill-opacity:1;fill-rule:nonzero;stroke:none"
           id="path3431" /></g><g
         id="g3433"
         transform="translate(676.6135,86.5161)"><path
           d="m 0,0 c -0.083,0.003 -0.169,-0.015 -0.248,-0.056 0,0 -0.091,-0.047 -0.191,-0.099 l 0,0 c -0.002,-0.001 -0.003,-0.001 -0.005,-0.002 l -0.25,-0.13 c -0.244,-0.128 -0.339,-0.428 -0.212,-0.673 0.086,-0.166 0.252,-0.263 0.426,-0.27 0.083,-0.003 0.169,0.015 0.248,0.056 l 0.444,0.23 C 0.457,-0.817 0.553,-0.515 0.426,-0.27 0.34,-0.104 0.174,-0.006 0,0"
           style="fill:#0000ee;fill-opacity:1;fill-rule:nonzero;stroke:none"
           id="path3435" /></g><g
         id="g3437"
         transform="translate(691.8933,94.431)"><path
           d="m 0,0 c -0.083,0.003 -0.167,-0.014 -0.246,-0.055 l -0.447,-0.232 c -0.244,-0.127 -0.34,-0.428 -0.213,-0.673 0.086,-0.166 0.252,-0.263 0.426,-0.27 0.083,-0.003 0.169,0.015 0.248,0.056 l 0.444,0.23 C 0.457,-0.817 0.553,-0.515 0.426,-0.27 0.34,-0.104 0.174,-0.006 0,0"
           style="fill:#0000ee;fill-opacity:1;fill-rule:nonzero;stroke:none"
           id="path3439" /></g><g
         id="g3441"
         transform="translate(701.3427,98.8233)"><path
           d="M 0,0 C 0.001,0 0.001,0 0.001,0 0,0 0,0 0,0 l -0.001,0 c 0,0 -0.001,0 -0.001,0 l -0.001,0 c 0,0 0,0 0,0 L -0.501,0.017 C -0.565,0.019 -0.626,0.009 -0.683,-0.011 -0.726,0.008 -0.771,0.021 -0.816,0.028 L -0.928,0.032 C -1.079,0.02 -1.223,-0.06 -1.311,-0.198 L -1.58,-0.619 c -0.148,-0.233 -0.08,-0.542 0.153,-0.691 0.003,-10e-4 0.005,-0.003 0.008,-0.004 0.232,-0.143 0.536,-0.073 0.682,0.157 0,0 0.057,0.089 0.118,0.185 L 0.001,0 c 0,0 0,0 -0.001,0"
           style="fill:#0000ee;fill-opacity:1;fill-rule:nonzero;stroke:none"
           id="path3443" /></g><g
         id="g3445"
         transform="translate(698.1075,97.6533)"><path
           d="m 0,0 c -0.083,0.003 -0.168,-0.015 -0.247,-0.055 l -0.445,-0.231 c -0.245,-0.127 -0.341,-0.429 -0.214,-0.674 0.086,-0.166 0.252,-0.263 0.426,-0.27 0.083,-0.003 0.169,0.015 0.248,0.056 l 0.444,0.23 C 0.457,-0.817 0.553,-0.515 0.426,-0.27 0.34,-0.104 0.174,-0.006 0,0"
           style="fill:#0000ee;fill-opacity:1;fill-rule:nonzero;stroke:none"
           id="path3447" /></g><g
         id="g3449"
         transform="translate(696.7998,65.6662)"><path
           d="M 0,0 -0.428,0.258 C -0.503,0.304 -0.586,0.327 -0.667,0.33 -0.843,0.337 -1.017,0.25 -1.115,0.089 -1.257,-0.147 -1.182,-0.454 -0.947,-0.597 l 0.432,-0.26 c 0.074,-0.045 0.156,-0.068 0.238,-0.071 0.175,-0.006 0.349,0.08 0.447,0.242 C 0.312,-0.45 0.236,-0.143 0,0"
           style="fill:#0000ee;fill-opacity:1;fill-rule:nonzero;stroke:none"
           id="path3451" /></g><g
         id="g3453"
         transform="translate(698.7858,64.1235)"><path
           d="M 0,0 -0.428,0.258 C -0.503,0.304 -0.586,0.327 -0.667,0.33 -0.843,0.337 -1.017,0.25 -1.115,0.089 -1.257,-0.147 -1.182,-0.454 -0.947,-0.597 l 0.432,-0.26 c 0.074,-0.045 0.156,-0.068 0.238,-0.071 0.175,-0.006 0.349,0.08 0.447,0.242 C 0.312,-0.45 0.236,-0.143 0,0"
           style="fill:#0000ee;fill-opacity:1;fill-rule:nonzero;stroke:none"
           id="path3455" /></g><g
         id="g3457"
         transform="translate(693.7847,67.4576)"><path
           d="M 0,0 -0.428,0.258 C -0.503,0.304 -0.585,0.327 -0.667,0.33 -0.843,0.337 -1.017,0.25 -1.114,0.089 -1.257,-0.147 -1.182,-0.454 -0.946,-0.597 l 0.43,-0.26 c 0.075,-0.045 0.157,-0.068 0.239,-0.071 0.175,-0.006 0.349,0.08 0.447,0.242 C 0.312,-0.45 0.237,-0.143 0,0"
           style="fill:#0000ee;fill-opacity:1;fill-rule:nonzero;stroke:none"
           id="path3459" /></g><g
         id="g3461"
         transform="translate(695.0005,96.0421)"><path
           d="m 0,0 c -0.083,0.003 -0.168,-0.015 -0.248,-0.055 l -0.446,-0.232 c -0.244,-0.127 -0.339,-0.428 -0.212,-0.673 0.086,-0.166 0.252,-0.263 0.426,-0.27 0.083,-0.003 0.169,0.015 0.248,0.056 l 0.444,0.23 C 0.457,-0.817 0.553,-0.515 0.426,-0.27 0.34,-0.104 0.174,-0.006 0,0"
           style="fill:#0000ee;fill-opacity:1;fill-rule:nonzero;stroke:none"
           id="path3463" /></g><g
         id="g3465"
         transform="translate(698.9879,83.524)"><path
           d="m 0,0 c -0.045,-0.07 -0.072,-0.151 -0.078,-0.24 l -0.023,-0.433 c -0.002,-0.042 -0.003,-0.069 -0.003,-0.069 -0.015,-0.275 0.196,-0.511 0.472,-0.526 0.187,-0.009 0.354,0.084 0.448,0.231 0.045,0.07 0.073,0.153 0.078,0.242 l 0.027,0.499 C 0.936,-0.02 0.724,0.216 0.448,0.23 0.262,0.24 0.094,0.147 0,0"
           style="fill:#0000ee;fill-opacity:1;fill-rule:nonzero;stroke:none"
           id="path3467" /></g><g
         id="g3469"
         transform="translate(698.8035,80.1007)"><path
           d="m 0,0 c -0.045,-0.07 -0.073,-0.153 -0.078,-0.242 l -0.027,-0.501 c -0.014,-0.275 0.198,-0.51 0.473,-0.525 0.186,-0.01 0.354,0.084 0.448,0.231 0.045,0.07 0.073,0.153 0.078,0.242 l 0.027,0.499 C 0.936,-0.02 0.724,0.215 0.448,0.23 0.262,0.24 0.094,0.147 0,0"
           style="fill:#0000ee;fill-opacity:1;fill-rule:nonzero;stroke:none"
           id="path3471" /></g><g
         id="g3473"
         transform="translate(699.1693,86.8675)"><path
           d="m 0,0 c -0.045,-0.07 -0.073,-0.153 -0.078,-0.242 0,0 -0.002,-0.043 -0.005,-0.104 l 0,-0.003 0,-0.001 -0.022,-0.394 c -0.013,-0.275 0.198,-0.509 0.473,-0.524 0.186,-0.01 0.354,0.084 0.448,0.231 0.045,0.07 0.073,0.153 0.078,0.242 l 0.027,0.499 C 0.935,-0.02 0.724,0.215 0.448,0.23 0.262,0.24 0.094,0.147 0,0"
           style="fill:#0000ee;fill-opacity:1;fill-rule:nonzero;stroke:none"
           id="path3475" /></g><g
         id="g3477"
         transform="translate(698.6216,76.7484)"><path
           d="m 0,0 c -0.045,-0.07 -0.073,-0.152 -0.078,-0.241 l -0.026,-0.501 c -0.015,-0.276 0.197,-0.511 0.472,-0.525 0.187,-0.01 0.355,0.083 0.448,0.23 0.045,0.07 0.073,0.153 0.078,0.242 l 0.027,0.499 C 0.936,-0.02 0.724,0.216 0.448,0.23 0.262,0.24 0.094,0.147 0,0"
           style="fill:#0000ee;fill-opacity:1;fill-rule:nonzero;stroke:none"
           id="path3479" /></g><g
         id="g3481"
         transform="translate(698.2641,70.2059)"><path
           d="m 0,0 c -0.045,-0.07 -0.072,-0.152 -0.078,-0.24 l -0.018,-0.342 0,0 0,-0.003 c -0.005,-0.087 -0.008,-0.157 -0.008,-0.157 -0.015,-0.275 0.196,-0.511 0.472,-0.526 0.187,-0.009 0.355,0.084 0.448,0.231 0.045,0.07 0.073,0.153 0.078,0.242 l 0.027,0.499 C 0.936,-0.02 0.724,0.216 0.448,0.23 0.262,0.24 0.094,0.147 0,0"
           style="fill:#0000ee;fill-opacity:1;fill-rule:nonzero;stroke:none"
           id="path3483" /></g><g
         id="g3485"
         transform="translate(698.178,66.7714)"><path
           d="m 0,0 c -0.045,-0.07 -0.072,-0.152 -0.078,-0.24 l -0.018,-0.342 c 0,0 0,0 0,0 l 0,-0.003 c -0.005,-0.087 -0.008,-0.157 -0.008,-0.157 -0.015,-0.275 0.196,-0.511 0.472,-0.526 0.187,-0.009 0.355,0.084 0.448,0.231 0.045,0.07 0.073,0.153 0.078,0.242 l 0.027,0.499 C 0.936,-0.02 0.724,0.216 0.448,0.23 0.262,0.24 0.094,0.147 0,0"
           style="fill:#0000ee;fill-opacity:1;fill-rule:nonzero;stroke:none"
           id="path3487" /></g><g
         id="g3489"
         transform="translate(698.4398,73.3931)"><path
           d="m 0,0 c -0.045,-0.07 -0.073,-0.153 -0.078,-0.242 0,0 -0.005,-0.103 -0.011,-0.215 l 0,0 c 0,-0.002 0,-0.003 0,-0.005 l -0.016,-0.281 c -0.013,-0.275 0.198,-0.51 0.473,-0.525 0.186,-0.01 0.354,0.084 0.448,0.231 0.045,0.07 0.073,0.153 0.078,0.242 l 0.027,0.499 C 0.936,-0.02 0.724,0.215 0.448,0.23 0.262,0.24 0.094,0.147 0,0"
           style="fill:#0000ee;fill-opacity:1;fill-rule:nonzero;stroke:none"
           id="path3491" /></g><g
         id="g3493"
         transform="translate(699.3488,90.1602)"><path
           d="m 0,0 c -0.045,-0.07 -0.072,-0.152 -0.078,-0.24 l -0.026,-0.503 c -0.014,-0.275 0.197,-0.51 0.472,-0.525 0.187,-0.009 0.355,0.084 0.448,0.231 0.045,0.07 0.073,0.153 0.078,0.242 l 0.027,0.499 C 0.936,-0.02 0.724,0.216 0.448,0.23 0.262,0.24 0.094,0.147 0,0"
           style="fill:#0000ee;fill-opacity:1;fill-rule:nonzero;stroke:none"
           id="path3495" /></g><g
         id="g3497"
         transform="translate(699.7004,96.5435)"><path
           d="m 0,0 c -0.045,-0.07 -0.073,-0.152 -0.078,-0.241 l -0.026,-0.501 c -0.015,-0.276 0.196,-0.511 0.472,-0.525 0.187,-0.01 0.355,0.083 0.448,0.23 0.045,0.07 0.073,0.153 0.078,0.242 l 0.027,0.499 C 0.936,-0.02 0.724,0.216 0.448,0.23 0.262,0.24 0.094,0.147 0,0"
           style="fill:#0000ee;fill-opacity:1;fill-rule:nonzero;stroke:none"
           id="path3499" /></g><g
         id="g3501"
         transform="translate(699.5266,93.4025)"><path
           d="m 0,0 c -0.045,-0.07 -0.073,-0.153 -0.078,-0.242 l -0.027,-0.501 c -0.013,-0.275 0.198,-0.51 0.473,-0.525 0.186,-0.01 0.354,0.084 0.448,0.231 0.045,0.07 0.073,0.153 0.078,0.242 l 0.027,0.499 C 0.935,-0.02 0.724,0.215 0.448,0.23 0.262,0.24 0.094,0.147 0,0"
           style="fill:#0000ee;fill-opacity:1;fill-rule:nonzero;stroke:none"
           id="path3503" /></g><g
         id="g3505"
         transform="translate(699.365,62.783)"><path
           d="M 0,0 -0.735,0.801 22.386,22.063 23.121,21.262 0,0 Z"
           style="fill:#0000ee;fill-opacity:1;fill-rule:nonzero;stroke:none"
           id="path3507" /></g><g
         id="g3509"
         transform="translate(674.7871,56.8019)"><path
           d="M 0,0 -0.254,1.057 24.083,6.91 24.337,5.853 0,0 Z"
           style="fill:#0000ee;fill-opacity:1;fill-rule:nonzero;stroke:none"
           id="path3511" /></g><g
         id="g3513"
         transform="translate(705.8681,56.7694)"><path
           d="M 0,0 -7.218,5.996 -6.524,6.833 0.694,0.837 0,0 Z"
           style="fill:#0000ee;fill-opacity:1;fill-rule:nonzero;stroke:none"
           id="path3515" /></g><g
         id="g3517"
         transform="translate(700.7281,98.7199)"><path
           d="m 0,0 -26.06,12.779 0.478,0.977 L 0.478,0.977 0,0 Z"
           style="fill:#0000ee;fill-opacity:1;fill-rule:nonzero;stroke:none"
           id="path3519" /></g><g
         id="g3521"
         transform="translate(668.3329,81.8873)"><path
           d="M 0,0 -1.058,0.25 6.045,30.225 7.103,29.975 0,0 Z"
           style="fill:#0000ee;fill-opacity:1;fill-rule:nonzero;stroke:none"
           id="path3523" /></g><g
         id="g3525"
         transform="translate(701.4651,98.9911)"><path
           d="M 0,0 -0.995,0.435 4.501,13.071 5.497,12.636 0,0 Z"
           style="fill:#0000ee;fill-opacity:1;fill-rule:nonzero;stroke:none"
           id="path3527" /></g><g
         id="g3529"
         transform="translate(721.8064,84)"><path
           d="m 0,0 -21.151,14.763 0.624,0.891 L 0.624,0.891 0,0 Z"
           style="fill:#0000ee;fill-opacity:1;fill-rule:nonzero;stroke:none"
           id="path3531" /></g><g
         id="g3533"
         transform="translate(667.6445,81.4931)"><path
           d="M 0,0 -8.798,2.719 -8.479,3.757 0.319,1.038 0,0 Z"
           style="fill:#0000ee;fill-opacity:1;fill-rule:nonzero;stroke:none"
           id="path3535" /></g><g
         id="g3537"
         transform="translate(674.1362,57.1853)"><path
           d="m 0,0 -6.856,24.682 1.048,0.29 L 1.048,0.29 0,0 Z"
           style="fill:#0000ee;fill-opacity:1;fill-rule:nonzero;stroke:none"
           id="path3539" /></g><g
         id="g3541"
         transform="translate(546.8507,44.0411)"><path
           d="m 0,0 c -2.753,2.84 -6.163,4.26 -10.231,4.26 -2.944,0 -5.538,-0.755 -7.792,-2.242 l 0.911,-0.742 c 0.166,-0.135 0.359,-0.323 0.566,-0.546 1.839,1.144 3.946,1.729 6.338,1.729 3.527,0 6.446,-1.244 8.76,-3.732 2.312,-2.489 3.469,-5.54 3.469,-9.154 0,-3.616 -1.157,-6.659 -3.469,-9.132 -2.314,-2.474 -5.233,-3.71 -8.76,-3.71 -3.529,0 -6.453,1.236 -8.781,3.71 -2.327,2.473 -3.492,5.516 -3.492,9.132 0,2.303 0.478,4.375 1.423,6.221 l -1.727,1.069 c -1.193,-2.156 -1.801,-4.582 -1.801,-7.29 0,-4.113 1.373,-7.589 4.126,-10.428 2.75,-2.84 6.16,-4.258 10.229,-4.258 4.068,0 7.478,1.418 10.231,4.258 2.75,2.839 4.126,6.315 4.126,10.428 C 4.126,-6.315 2.75,-2.839 0,0"
           style="fill:#0000ee;fill-opacity:1;fill-rule:nonzero;stroke:none"
           id="path3543" /></g><g
         id="g3545"
         transform="translate(477.6707,46.0831)"><path
           d="m 0,0 c -1.699,1.302 -3.77,1.954 -6.213,1.954 -2.446,0 -4.766,-0.118 -6.961,-0.352 l 0,-28.319 2.021,0 0,26.739 c 1.58,0.117 2.956,0.176 4.126,0.176 2.224,0 4.018,-0.499 5.379,-1.494 1.363,-0.994 2.042,-2.59 2.042,-4.785 0,-2.195 -0.967,-3.981 -2.898,-5.356 -0.641,-0.457 -1.754,-0.945 -2.589,-1.28 l 0,-1.557 c 1.235,0.425 3.15,1.15 4.171,1.892 2.312,1.683 3.469,3.843 3.469,6.477 C 2.547,-3.27 1.696,-1.302 0,0"
           style="fill:#0000ee;fill-opacity:1;fill-rule:nonzero;stroke:none"
           id="path3547" /></g><g
         id="g3549"
         transform="translate(564.4924,22.6157)"><path
           d="m 0,0 c 0,-4.274 -2.105,-7.946 -6.322,-11.021 l 0.922,-1.316 c 1.522,1.083 2.766,2.122 3.733,3.118 0.967,0.993 1.815,2.398 2.547,4.213 0.731,1.815 1.096,3.907 1.096,6.279 l 0,23.972 L 0,25.245 0,0 Z"
           style="fill:#0000ee;fill-opacity:1;fill-rule:nonzero;stroke:none"
           id="path3551" /></g><g
         id="g3553"
         transform="translate(584.0487,34.0304)"><path
           d="m 0,0 10.186,0 0,1.713 -10.186,0 0,10.362 11.283,0 0,1.756 -13.304,0 0,-28.495 13.745,0 0,1.844 L 0,-12.82 0,0 Z"
           style="fill:#0000ee;fill-opacity:1;fill-rule:nonzero;stroke:none"
           id="path3555" /></g><g
         id="g3557"
         transform="translate(621.7588,20.7718)"><path
           d="m 0,0 c -3.366,0 -6.329,1.257 -8.892,3.775 -2.56,2.517 -3.841,5.569 -3.841,9.155 0,3.584 1.104,6.614 3.315,9.088 2.209,2.473 4.94,3.711 8.19,3.711 3.246,0 6.392,-0.469 9.438,-1.406 l 0.526,1.669 c -3.159,1.025 -6.395,1.537 -9.703,1.537 -4.097,0 -7.442,-1.405 -10.03,-4.215 -2.592,-2.811 -3.886,-6.302 -3.886,-10.471 0,-4.172 1.484,-7.663 4.456,-10.473 2.97,-2.809 6.409,-4.214 10.316,-4.214 3.91,0 6.961,0.613 9.156,1.844 L 8.385,1.405 C 6.16,0.468 3.365,0 0,0"
           style="fill:#0000ee;fill-opacity:1;fill-rule:nonzero;stroke:none"
           id="path3559" /></g><g
         id="g3561"
         transform="translate(640.6732,46.0607)"><path
           d="m 0,0 9.658,0 0,-26.694 1.976,0 0,26.694 9.661,0 0,1.8 L 0,1.8 0,0 Z"
           style="fill:#0000ee;fill-opacity:1;fill-rule:nonzero;stroke:none"
           id="path3563" /></g><g
         id="g3565"
         transform="translate(503.4879,31.6595)"><path
           d="m 0,0 c 1.257,0.907 2.385,2.094 3.379,3.557 0.996,1.464 1.495,3.058 1.495,4.785 0,2.576 -0.88,4.559 -2.636,5.95 -1.757,1.39 -3.981,2.085 -6.673,2.085 -1.757,0 -3.894,-0.103 -6.412,-0.306 l 0,-28.364 2.021,0 0,26.739 c 1.58,0.116 2.956,0.176 4.126,0.176 2.196,0 3.981,-0.527 5.358,-1.581 1.376,-1.054 2.063,-2.59 2.063,-4.61 0,-2.02 -0.658,-3.792 -1.976,-5.314 -1.316,-1.521 -2.01,-2.089 -3.152,-2.089 l -0.355,-0.452 0.918,-1.409 c 0,0 5.64,-7.656 6.652,-8.739 1.009,-1.083 2.026,-1.849 3.051,-2.304 1.022,-0.454 2.356,-0.694 3.994,-0.724 l 0.045,1.361 c -1.963,0.232 -3.777,1.215 -5.444,2.94 C 5.635,-7.39 3.482,-4.624 0,0"
           style="fill:#0000ee;fill-opacity:1;fill-rule:nonzero;stroke:none"
           id="path3567" /></g><g
         id="g3569"
         transform="translate(378.9965,43.5326)"><path
           d="m 0,0 c -2.753,2.84 -6.163,4.26 -10.231,4.26 -2.944,0 -5.539,-0.755 -7.792,-2.242 l 0.911,-0.742 c 0.166,-0.135 0.359,-0.323 0.566,-0.546 1.839,1.144 3.946,1.729 6.338,1.729 3.527,0 6.446,-1.244 8.76,-3.732 2.312,-2.489 3.469,-5.54 3.469,-9.154 0,-3.616 -1.157,-6.659 -3.469,-9.132 -2.314,-2.474 -5.233,-3.71 -8.76,-3.71 -3.529,0 -6.453,1.236 -8.781,3.71 -2.327,2.473 -3.492,5.516 -3.492,9.132 0,2.303 0.478,4.375 1.423,6.221 l -1.727,1.069 c -1.193,-2.156 -1.801,-4.582 -1.801,-7.29 0,-4.113 1.373,-7.589 4.126,-10.428 2.75,-2.84 6.16,-4.258 10.229,-4.258 4.068,0 7.478,1.418 10.231,4.258 2.75,2.839 4.126,6.315 4.126,10.428 C 4.126,-6.315 2.75,-2.839 0,0"
           style="fill:#0000ee;fill-opacity:1;fill-rule:nonzero;stroke:none"
           id="path3571" /></g><g
         id="g3573"
         transform="translate(404.3369,31.9237)"><path
           d="m 0,0 c 1.257,0.907 2.385,2.094 3.379,3.557 0.996,1.464 1.495,3.058 1.495,4.785 0,2.576 -0.88,4.559 -2.636,5.95 -1.757,1.39 -3.981,2.085 -6.673,2.085 -1.757,0 -3.894,-0.103 -6.412,-0.306 l 0,-28.364 2.021,0 0,26.739 c 1.58,0.116 2.956,0.176 4.126,0.176 2.196,0 3.981,-0.527 5.358,-1.581 1.376,-1.054 2.063,-2.59 2.063,-4.61 0,-2.02 -0.658,-3.792 -1.976,-5.314 -1.316,-1.521 -2.01,-2.089 -3.152,-2.089 l -0.355,-0.452 0.918,-1.409 c 0,0 5.64,-7.656 6.652,-8.739 1.009,-1.083 2.026,-1.849 3.051,-2.304 1.022,-0.454 2.356,-0.694 3.994,-0.724 l 0.045,1.361 c -1.963,0.232 -3.777,1.215 -5.444,2.94 C 5.635,-7.39 3.482,-4.624 0,0"
           style="fill:#0000ee;fill-opacity:1;fill-rule:nonzero;stroke:none"
           id="path3575" /></g><g
         id="g3577"
         transform="translate(267.3326,48.3008)"><path
           d="m 0,0 -1.186,0 -9.877,-21.074 c -0.587,-1.201 -0.983,-2.108 -1.186,-2.722 0,0.087 -0.352,1.009 -1.055,2.766 L -22.172,0 l -1.186,0 -4.654,-28.67 1.976,0 3.294,21.557 c 0.058,0.323 0.116,0.725 0.174,1.208 0.058,0.483 0.111,0.87 0.153,1.163 0.045,0.292 0.066,0.455 0.066,0.484 0.352,-1.054 0.703,-1.976 1.054,-2.766 l 8.298,-20.154 1.186,0 9.352,20.109 1.273,2.898 c 0,-0.468 0.103,-1.42 0.309,-2.853 l 3.117,-21.646 2.106,0 L 0,0 Z"
           style="fill:#0000ee;fill-opacity:1;fill-rule:nonzero;stroke:none"
           id="path3579" /></g><g
         id="g3581"
         transform="translate(286.9181,34.2946)"><path
           d="m 0,0 10.186,0 0,1.713 -10.186,0 0,10.362 11.283,0 0,1.756 -13.304,0 0,-28.495 13.745,0 0,1.844 L 0,-12.82 0,0 Z"
           style="fill:#0000ee;fill-opacity:1;fill-rule:nonzero;stroke:none"
           id="path3583" /></g><g
         id="g3585"
         transform="translate(338.4612,48.3008)"><path
           d="m 0,0 -9.877,-21.074 c -0.587,-1.201 -0.983,-2.108 -1.186,-2.722 0,0.087 -0.352,1.009 -1.054,2.766 L -20.986,0 l -1.186,0 -4.654,-28.67 1.976,0 3.294,21.557 c 0.058,0.323 0.116,0.725 0.174,1.208 0.058,0.483 0.111,0.87 0.153,1.163 0.045,0.292 0.066,0.455 0.066,0.484 0.352,-1.054 0.703,-1.976 1.054,-2.766 l 8.298,-20.154 1.186,0 9.352,20.109 L 0,-4.171 c 0,-0.468 0.103,-1.42 0.309,-2.853 l 3.117,-21.646 2.106,0 L 1.186,0 0,0 Z"
           style="fill:#0000ee;fill-opacity:1;fill-rule:nonzero;stroke:none"
           id="path3587" /></g><g
         id="g3589"
         transform="translate(430.4262,19.6306)"><path
           d="m 0,0 1.976,0 0,10.098 10.757,18.397 -2.282,0 L 2.153,14.313 C 1.596,13.347 1.231,12.673 1.054,12.293 0.967,12.382 0.6,13.068 -0.042,14.358 l -8.298,14.137 -2.417,0 L 0,10.186 0,0 Z"
           style="fill:#0000ee;fill-opacity:1;fill-rule:nonzero;stroke:none"
           id="path3591" /></g><g
         id="g3705"
         transform="translate(86.1362,21.2103)"><path
           d="m 0,0 -13.084,0 0,26.651 -2.021,0 0,-28.495 L 0,-1.844 0,0 Z"
           style="fill:#0000ee;fill-opacity:1;fill-rule:nonzero;stroke:none"
           id="path3595" /></g><g
         id="g3597"
         transform="translate(147.4629,18.9279)"><path
           d="M 0,0 C 3.91,0 6.961,0.614 9.156,1.844 L 8.496,3.248 C 6.271,2.311 3.476,1.844 0.111,1.844 c -3.366,0 -6.33,1.257 -8.892,3.775 -2.56,2.517 -3.841,5.569 -3.841,9.155 0,3.584 1.104,6.614 3.315,9.088 2.209,2.473 4.94,3.711 8.19,3.711 3.246,0 6.392,-0.469 9.438,-1.406 l 0.526,1.668 c -3.159,1.025 -6.396,1.538 -9.703,1.538 -4.097,0 -7.442,-1.405 -10.03,-4.215 -2.592,-2.811 -3.886,-6.302 -3.886,-10.472 0,-4.171 1.484,-7.662 4.456,-10.471 C -7.347,1.404 -3.907,0 0,0"
           style="fill:#0000ee;fill-opacity:1;fill-rule:nonzero;stroke:none"
           id="path3599" /></g><g
         id="g3601"
         transform="translate(217.4516,21.2103)"><path
           d="m 0,0 -13.084,0 0,26.651 -2.021,0 0,-28.495 L 0,-1.844 0,0 Z"
           style="fill:#0000ee;fill-opacity:1;fill-rule:nonzero;stroke:none"
           id="path3603" /></g><g
         id="g3605"
         transform="translate(172.5985,29.245)"><path
           d="m 0,0 0.703,1.713 4.39,10.536 c 0.352,0.879 0.748,1.976 1.186,3.293 0.204,-0.585 0.645,-1.697 1.318,-3.336 l 4.346,-10.493 4.829,-11.592 2.24,0 -12.03,28.671 -1.186,0 -11.943,-28.671 2.066,0 L 0,0 Z"
           style="fill:#0000ee;fill-opacity:1;fill-rule:nonzero;stroke:none"
           id="path3607" /></g><g
         id="g3609"
         transform="translate(184.5209,32.3646)"><path
           d="m 0,0 -6.406,0 -0.628,-1.713 7.754,0"
           style="fill:#0000ee;fill-opacity:1;fill-rule:nonzero;stroke:none"
           id="path3611" /></g><g
         id="g3613"
         transform="translate(118.907,44.0411)"><path
           d="m 0,0 c -2.753,2.84 -6.163,4.26 -10.231,4.26 -2.944,0 -5.538,-0.755 -7.792,-2.242 l 0.912,-0.742 c 0.165,-0.135 0.358,-0.323 0.565,-0.546 1.839,1.143 3.946,1.729 6.338,1.729 3.527,0 6.446,-1.244 8.76,-3.732 2.312,-2.489 3.469,-5.54 3.469,-9.154 0,-3.616 -1.157,-6.659 -3.469,-9.132 -2.314,-2.474 -5.233,-3.71 -8.76,-3.71 -3.529,0 -6.453,1.236 -8.781,3.71 -2.327,2.473 -3.492,5.516 -3.492,9.132 0,2.303 0.478,4.375 1.424,6.221 l -1.728,1.069 c -1.193,-2.156 -1.801,-4.582 -1.801,-7.29 0,-4.113 1.374,-7.589 4.126,-10.428 2.75,-2.84 6.16,-4.258 10.229,-4.258 4.068,0 7.478,1.418 10.231,4.258 2.75,2.839 4.126,6.315 4.126,10.428 C 4.126,-6.315 2.75,-2.839 0,0"
           style="fill:#0000ee;fill-opacity:1;fill-rule:nonzero;stroke:none"
           id="path3615" /></g><g
         transform="scale(1,-1)"
         style="font-style:normal;font-variant:normal;font-weight:600;font-stretch:normal;font-size:32px;line-height:125%;font-family:Cormorant;-inkscape-font-specification:'Cormorant, Semi-Bold';text-align:start;letter-spacing:0px;word-spacing:0px;writing-mode:lr-tb;text-anchor:start;fill:#000000;fill-opacity:1;stroke:none;stroke-width:1px;stroke-linecap:butt;stroke-linejoin:miter;stroke-opacity:1"
         id="text3629"><path
           id="path3590"
           style=""
           d="m 695.54237,-39.841368 q 0,1.024 0.672,1.696 0.672,0.64 1.984,1.376 1.152,0.64 1.792,1.056 0.64,0.416 1.088,1.12 0.48,0.704 0.48,1.696 0,1.088 -0.544,2.016 -0.544,0.928 -1.632,1.504 -1.056,0.576 -2.528,0.576 -1.696,0 -3.232,-0.896 -0.192,-0.192 -0.192,-0.384 l -0.064,-2.944 q 0,-0.096 0.16,-0.096 0.192,-0.032 0.224,0.064 0.544,1.568 1.664,2.592 1.12,1.024 2.368,1.024 0.768,0 1.216,-0.416 0.448,-0.416 0.448,-1.216 0,-1.248 -0.704,-1.952 -0.704,-0.704 -2.048,-1.44 -1.088,-0.576 -1.696,-0.96 -0.608,-0.416 -1.056,-1.088 -0.416,-0.672 -0.416,-1.696 0,-1.824 1.312,-2.72 1.344,-0.928 3.232,-0.928 1.248,0 2.56,0.48 0.288,0.128 0.288,0.352 0,0.736 -0.032,1.152 l -0.032,1.536 q 0,0.096 -0.192,0.096 -0.192,0 -0.192,-0.096 0,-0.64 -0.512,-1.312 -0.512,-0.672 -1.312,-1.12 -0.8,-0.448 -1.632,-0.448 -1.472,0 -1.472,1.376 z m -10.676,10.688 q -0.096,0 -0.096,-0.192 0,-0.192 0.096,-0.192 1.056,0 1.44,-0.448 0.384,-0.48 0.384,-1.76 l 0,-5.792 q 0,-1.12 -0.256,-1.6 -0.224,-0.512 -0.768,-0.512 -0.48,0 -1.28,0.384 l -0.032,0 q -0.128,0 -0.192,-0.16 -0.032,-0.16 0.064,-0.224 l 4.576,-2.144 0.128,-0.032 q 0.128,0 0.256,0.16 0.16,0.128 0.16,0.224 l 0,0.672 q -0.064,1.344 -0.064,3.168 l 0,5.856 q 0,1.312 0.352,1.76 0.384,0.448 1.472,0.448 0.096,0 0.096,0.192 0,0.192 -0.096,0.192 -0.832,0 -1.312,-0.032 l -1.824,-0.032 -1.824,0.032 q -0.48,0.032 -1.28,0.032 z m 2.912,-16 q -0.832,0 -1.312,-0.448 -0.48,-0.48 -0.48,-1.312 0,-0.768 0.48,-1.216 0.48,-0.448 1.312,-0.448 0.8,0 1.248,0.448 0.448,0.448 0.448,1.216 0,0.832 -0.448,1.312 -0.448,0.448 -1.248,0.448 z m -4.048,3.648 q 0.096,0 0.096,0.192 0,0.192 -0.096,0.192 -0.896,0 -1.568,0.64 -0.64,0.64 -1.248,2.048 l -3.936,9.28 q -0.096,0.16 -0.352,0.16 -0.288,0 -0.384,-0.16 l -4.736,-9.696 q -0.704,-1.408 -1.184,-1.824 -0.448,-0.448 -1.152,-0.448 -0.096,0 -0.096,-0.192 0,-0.192 0.096,-0.192 0.576,0 0.928,0.032 l 1.856,0.032 2.368,-0.032 q 0.512,-0.032 1.408,-0.032 0.096,0 0.096,0.192 0,0.192 -0.096,0.192 -1.888,0 -1.888,0.736 0,0.192 0.16,0.512 l 3.68,7.296 2.432,-5.92 q 0.224,-0.544 0.224,-1.056 0,-0.768 -0.576,-1.152 -0.544,-0.416 -1.632,-0.416 -0.064,0 -0.064,-0.192 0,-0.192 0.064,-0.192 0.864,0 1.312,0.032 l 1.92,0.032 1.248,-0.032 q 0.352,-0.032 1.12,-0.032 z" /></g></g></g></svg>